# xmcd
#
# Track frame offsets:
#	150
#	22777
#	43321
#	65955
#	86300
#	108914
#	130584
#	160883
#	172978
#	203465
#	221469
#
# Disc length: 3164 seconds
#
# Revision: 1
# Processed by: cddbd v1.5.2PL0 Copyright (c) Steve Scherf et al.
# Submitted via: audiograbber 1.81.03
#
DISCID=880c5a0b
DTITLE=Johnny And The MoTones - Get Gone
DYEAR=2006
DGENRE=Blues
TTITLE0=Get Up Get Out Get Gone
TTITLE1=Time's Tuff
TTITLE2=Soul's On Fire
TTITLE3=Cuda
TTITLE4=Who's Got A Sock
TTITLE5=Use The Steps
TTITLE6=Roll Me Down
TTITLE7=Free Fall
TTITLE8=I've Been Lied To
TTITLE9=Tree Falls
TTITLE10=Presiding Over Accidents
EXTD=
EXTT0=
EXTT1=
EXTT2=
EXTT3=
EXTT4=
EXTT5=
EXTT6=
EXTT7=
EXTT8=
EXTT9=
EXTT10=
PLAYORDER=
